# xmcd
#
# Track frame offsets:
#	150
#	15784
#	33874
#	51142
#	68292
#	81447
#	96698
#	112938
#	128283
#	146624
#	163655
#	183664
#
# Disc length: 2688 seconds
#
# Revision: 0
# Processed by: cddbd v1.5PL3 Copyright (c) Steve Scherf et al.
# Submitted via: dBpowerAMP V4.0
#
DISCID=900a7e0c
DTITLE=Terri Clark - Pain To Kill
DYEAR=1900
DGENRE=
TTITLE0=I Just Wanna Be Mad
TTITLE1=Three Mississippi
TTITLE2=Pain To Kill
TTITLE3=I Just Called To Say Goodbye
TTITLE4=I Wanna Do It All
TTITLE5=The One You Love
TTITLE6=Almost Gone
TTITLE7=Working Girl
TTITLE8=Better Than You
TTITLE9=Not A Bad Thing
TTITLE10=The First To Fall
TTITLE11=God And Me
EXTD=
EXTT0=
EXTT1=
EXTT2=
EXTT3=
EXTT4=
EXTT5=
EXTT6=
EXTT7=
EXTT8=
EXTT9=
EXTT10=
EXTT11=
PLAYORDER=
